<?xml version="1.0" standalone="no"?><!DOCTYPE svg PUBLIC "-//W3C//DTD SVG 1.1//EN" "http://www.w3.org/Graphics/SVG/1.1/DTD/svg11.dtd"><svg t="1629465156392" class="icon" viewBox="0 0 1024 1024" version="1.1" xmlns="http://www.w3.org/2000/svg" p-id="1501" xmlns:xlink="http://www.w3.org/1999/xlink" width="200" height="200"><defs><style type="text/css"></style></defs><path d="M166.4 64h691.2Q960 64 960 166.4v691.2Q960 960 857.6 960H166.4Q64 960 64 857.6V166.4Q64 64 166.4 64z" fill="#261300" p-id="1502"></path><path d="M857.6 983.04H166.4A125.58 125.58 0 0 1 40.96 857.6V166.4A125.58 125.58 0 0 1 166.4 40.96h691.2A125.58 125.58 0 0 1 983.04 166.4v691.2A125.58 125.58 0 0 1 857.6 983.04z m-691.2-896a79.45 79.45 0 0 0-79.36 79.36v691.2a79.45 79.45 0 0 0 79.36 79.36h691.2a79.45 79.45 0 0 0 79.36-79.36V166.4a79.45 79.45 0 0 0-79.36-79.36z" fill="#FF7C00" p-id="1503"></path><path d="M434.432 329.216h68.096l140.8 365.568H574.72l-34.304-96.768h-145.92l-34.304 96.768h-66.048z m-22.528 220.16H523.52l-54.784-157.184H467.2z m259.584-220.16h58.368v55.296h-58.368z m0 100.864h58.368v264.704h-58.368z" fill="#FF7C00" p-id="1504"></path></svg>