<?xml version="1.0" standalone="no"?><!DOCTYPE svg PUBLIC "-//W3C//DTD SVG 1.1//EN" "http://www.w3.org/Graphics/SVG/1.1/DTD/svg11.dtd"><svg t="1629465081736" class="icon" viewBox="0 0 1024 1024" version="1.1" xmlns="http://www.w3.org/2000/svg" p-id="11805" xmlns:xlink="http://www.w3.org/1999/xlink" width="200" height="200"><defs><style type="text/css"></style></defs><path d="M166.4 64h691.2Q960 64 960 166.4v691.2Q960 960 857.6 960H166.4Q64 960 64 857.6V166.4Q64 64 166.4 64z" fill="#1F0040" p-id="11806"></path><path d="M857.6 983.04H166.4A125.58 125.58 0 0 1 40.96 857.6V166.4A125.58 125.58 0 0 1 166.4 40.96h691.2A125.58 125.58 0 0 1 983.04 166.4v691.2A125.58 125.58 0 0 1 857.6 983.04z m-691.2-896a79.45 79.45 0 0 0-79.36 79.36v691.2a79.45 79.45 0 0 0 79.36 79.36h691.2a79.45 79.45 0 0 0 79.36-79.36V166.4a79.45 79.45 0 0 0-79.36-79.36z" fill="#D291FF" p-id="11807"></path><path d="M343.731 325.632h68.096l140.8 365.568H484.02l-34.304-96.768h-145.92L269.491 691.2h-66.048z m-22.528 220.16H432.82l-54.784-157.184H376.5z m303.616 28.16c0 41.472 22.528 78.336 71.168 78.336 33.792 0 54.272-14.848 64.512-44.032h55.296c-12.8 57.856-61.952 90.112-119.808 90.112-82.944 0-129.536-57.856-129.536-139.264 0-75.264 49.152-139.776 128-139.776 83.456 0 134.656 75.264 124.928 154.624z m136.192-38.4c-2.048-36.864-27.136-70.144-66.56-70.144-40.448 0-68.096 30.72-69.632 70.144z" fill="#D291FF" p-id="11808"></path></svg>