<?xml version="1.0" standalone="no"?><!DOCTYPE svg PUBLIC "-//W3C//DTD SVG 1.1//EN" "http://www.w3.org/Graphics/SVG/1.1/DTD/svg11.dtd"><svg t="1629465300963" class="icon" viewBox="0 0 1024 1024" version="1.1" xmlns="http://www.w3.org/2000/svg" p-id="4768" xmlns:xlink="http://www.w3.org/1999/xlink" width="200" height="200"><defs><style type="text/css"></style></defs><path d="M768.011289 1024H255.988711C114.605636 1024 0 909.394364 0 768.011289V255.988711C0 114.605636 114.605636 0 255.988711 0h512.022578c141.383075 0 255.988711 114.605636 255.988711 255.988711v512.022578c0 141.383075-114.605636 255.988711-255.988711 255.988711z" fill="#1E2A5C" p-id="4769"></path><path d="M377.9096 568.873837c-2.573885 16.120651-7.405565 30.38991-14.26926 43.214182-6.863694 12.598492-15.398157 23.164969-25.603386 31.338184-10.20523 8.173215-21.674825 14.26926-34.499096 18.378445-12.779115 4.06403-26.325881 6.1412-40.775764 6.1412-33.731446 0-61.728095-11.288971-84.17057-34.137849-13.366142-13.366142-21.674825-28.357896-25.422763-45.42682-3.522159-16.888301-5.37355-38.382502-5.37355-64.527759v-20.41046c0-26.145257 1.851391-47.639458 5.37355-64.708383 3.522159-17.068924 12.056621-32.060678 25.422763-45.42682 11.288971-11.288971 23.932619-19.823433 37.479385-25.603387 13.546765-5.554174 29.125546-8.353839 46.736341-8.353839 15.03691 0 28.944922 2.032015 41.543414 6.141201 12.598492 4.06403 23.932619 10.20523 33.912069 18.378445 10.024606 8.173215 18.378445 18.559069 25.196984 30.976937 6.863694 12.598492 11.695374 27.093531 14.269259 43.394805h-75.861886c-2.573885-9.843983-6.863694-17.791419-12.779115-23.571372-5.915421-5.915421-14.630507-8.895709-26.145258-8.895709-6.321824 0-12.056621 1.128897-17.249548 3.522159-5.012303 2.393262-9.076333 5.37355-12.237244 9.076333-2.573885 3.341535-4.83168 7.224942-6.321824 12.056621-1.670768 4.651056-2.799665 11.695374-3.702783 21.132954s-1.309521 23.571372-1.309521 41.904661c0 24.47449 0.948274 41.724038 2.799665 51.748644s4.651056 17.610795 8.715086 23.164969c6.683071 8.534462 16.481898 12.959739 29.306169 12.959739 11.288971 0 19.823433-2.980288 25.964634-8.895709 6.1412-5.915421 10.385854-13.727389 12.959739-23.571372h76.04251z m234.178419 56.173921h-22.442475v40.233893h-66.379151v-40.233893H397.371786v-66.379151l100.697624-196.924814h76.58438L474.136791 558.668607h49.129602v-40.233893h66.379151v40.233893h22.442475v66.379151z m267.95502-111.625348v24.835737c0 14.630507-0.722494 27.274154-2.032015 37.660008s-4.244653 20.591083-8.895709 30.61569c-4.651056 10.024606-11.514751 19.64281-20.771707 29.125546-19.823433 19.823433-47.097588 29.667416-81.777307 29.667416h-112.573621V361.743793h112.573621c34.67972 0 61.953874 10.024606 81.777307 29.667417 9.256956 9.256956 16.120651 18.920316 20.771707 29.125545 4.651056 10.024606 7.586189 20.229836 8.895709 30.61569s2.032015 22.803722 2.032015 37.660008v24.609957z m-74.552366 0c0-25.01636-0.541871-41.543414-1.490144-49.490849-1.128897-7.992592-3.160912-14.26926-6.321824-18.920316-7.586189-11.288971-19.64281-17.068924-35.98924-17.068925h-33.008952v170.598933h33.008952c16.301274 0 28.177272-5.734797 35.98924-17.068924 2.393262-3.522159 4.06403-7.224942 4.83168-10.747101 0.948274-3.522159 1.670768-9.663359 2.212638-18.152665 0.587027-8.353839 0.76765-21.539357 0.76765-39.150153z" fill="#8CBDE6" p-id="4770"></path></svg>