<?xml version="1.0" encoding="utf-8"?>
<!-- Generator: Adobe Illustrator 25.3.1, SVG Export Plug-In . SVG Version: 6.00 Build 0)  -->
<svg version="1.1" id="图层_1" xmlns="http://www.w3.org/2000/svg" xmlns:xlink="http://www.w3.org/1999/xlink" x="0px" y="0px"
	 viewBox="0 0 115.7 30.1" style="enable-background:new 0 0 115.7 30.1;" xml:space="preserve">
<style type="text/css">
	.st0{display:none;fill:#FF6E6E;}
	.st1{display:none;}
	.st2{font-family:'Againts';}
	.st3{font-size:26.2905px;}
	.st4{fill:#FFFFFF;}
	.st5{display:none;fill:#FFFFFF;}
</style>
<path id="logo" class="st0" d="M12.2,22.2l-7.1-9.3v9.3H0V1.1h5.1v9.2l7-9.2h6L10,11.5l8.5,10.7H12.2z M19.9,13.8
	c0-1.6,0.3-3.1,1-4.5c0.6-1.2,1.5-2.3,2.7-3c1.1-0.7,2.4-1.1,3.8-1c1.1,0,2.1,0.2,3.1,0.7c0.8,0.4,1.6,1.1,2.1,1.9V5.5h5.1v16.7
	h-5.1v-2.4c-0.5,0.8-1.2,1.4-2.1,1.9c-1,0.5-2,0.7-3.1,0.7c-1.3,0-2.6-0.4-3.7-1.1c-1.1-0.7-2.1-1.8-2.7-3
	C20.2,16.9,19.9,15.4,19.9,13.8z M32.4,13.8c0.1-1.1-0.3-2.2-1.1-3c-0.7-0.7-1.6-1.1-2.6-1.1c-1,0-1.9,0.4-2.6,1.1
	c-0.7,0.8-1.1,1.9-1.1,3c-0.1,1.1,0.3,2.2,1.1,3c0.7,0.7,1.6,1.1,2.6,1.1c1,0,1.9-0.4,2.6-1.1C32.1,16,32.5,14.9,32.4,13.8z
	 M58.4,5.5L47.9,30.1h-5.5l3.8-8.5L39.4,5.5h5.7L49,15.9l3.8-10.5H58.4z M59.2,13.8c0-1.6,0.3-3.1,1-4.5c0.6-1.2,1.5-2.3,2.7-3
	c1.1-0.7,2.4-1.1,3.8-1c1,0,2.1,0.2,3,0.7c0.9,0.4,1.6,1.1,2.1,1.9V0h5.1v22.2h-5.1v-2.4c-0.5,0.8-1.2,1.5-2.1,1.9
	c-1,0.5-2,0.7-3.1,0.7c-1.3,0-2.6-0.4-3.8-1.1c-1.1-0.7-2.1-1.8-2.7-3C59.5,16.9,59.2,15.4,59.2,13.8z M71.8,13.8
	c0.1-1.1-0.3-2.2-1.1-3c-0.7-0.7-1.6-1.1-2.6-1.1c-1,0-1.9,0.4-2.6,1.1c-0.7,0.8-1.1,1.9-1.1,3c-0.1,1.1,0.3,2.2,1.1,3
	c0.7,0.7,1.6,1.1,2.6,1.1c1,0,1.9-0.4,2.6-1.1C71.4,16,71.8,14.9,71.8,13.8z M96.4,13.6c0,0.5,0,1-0.1,1.5H84.7c0,0.9,0.4,1.7,1,2.4
	c0.6,0.5,1.4,0.8,2.2,0.8c1.1,0.1,2.2-0.6,2.7-1.6H96c-0.3,1.1-0.8,2.1-1.5,3c-0.7,0.9-1.7,1.6-2.7,2.1c-1.2,0.5-2.4,0.8-3.7,0.8
	c-1.5,0-3-0.3-4.4-1c-1.3-0.7-2.3-1.7-3-3c-0.7-1.4-1.1-3-1.1-4.6c0-1.6,0.3-3.2,1.1-4.6c0.7-1.3,1.7-2.3,3-3c1.4-0.7,2.9-1.1,4.4-1
	c1.5,0,3,0.3,4.3,1c1.2,0.7,2.3,1.7,3,2.9C96.1,10.5,96.4,12,96.4,13.6z M91.1,12.2c0-0.8-0.3-1.6-0.9-2.1c-0.6-0.5-1.4-0.8-2.2-0.8
	c-0.8,0-1.6,0.2-2.2,0.8c-0.6,0.5-1,1.3-1.1,2.1H91.1z M109.3,5.3c1.8-0.1,3.5,0.6,4.7,1.9c1.2,1.5,1.9,3.3,1.8,5.2v9.8h-5.1v-9.1
	c0.1-0.9-0.3-1.9-0.9-2.6c-0.6-0.6-1.5-1-2.3-0.9c-0.9,0-1.7,0.3-2.3,0.9c-0.6,0.7-0.9,1.7-0.9,2.6v9.1h-5.1V5.5h5.1v2.2
	c0.5-0.8,1.3-1.4,2.1-1.8C107.2,5.5,108.3,5.3,109.3,5.3z"/>
<text transform="matrix(1 0 0 1 19.1512 21.5689)" class="st1 st2 st3">D u  Z hen</text>
<g>
	<path class="st4" d="M7,9.1v15.4H0.6V2.8h8.4c3.8,0,6.8,1,9,2.9c2.2,1.9,3.3,4.5,3.3,7.7c0,3.3-1.1,5.9-3.2,8
		c-2.1,2.1-4.8,3.1-8.2,3.1c-0.1,0-0.8,0-1.9-0.1v-6.3h1c3.8,0,5.6-1.6,5.6-4.7c0-2.9-1.8-4.4-5.5-4.4H7z"/>
	<path class="st4" d="M23.8,8.7h5.9v9c0,0.9,0.4,1.3,1.1,1.3c0.8,0,1.1-0.4,1.1-1.3v-9h5.9v8.9c0,2.1-0.7,3.8-2,5.2
		c-1.3,1.4-3,2.1-5,2.1c-2.1,0-3.8-0.7-5.1-2c-1.3-1.4-1.9-3.3-1.9-5.7V8.7z"/>
	<path class="st4" d="M64.3,2.8l-6.7,15.4h6.6v6.2H47.9l6.7-15.4h-7.1V2.8H64.3z"/>
	<path class="st4" d="M71.9,2.8v6.6c1-0.7,2-1.1,3-1.1c1.5,0,2.7,0.5,3.6,1.6c0.9,1.1,1.3,2.6,1.3,4.5v10H74v-8.4
		c0-0.6-0.1-1.1-0.2-1.3c-0.1-0.2-0.4-0.4-0.8-0.4c-0.7,0-1,0.5-1,1.5v8.6H66V2.8H71.9z"/>
	<path class="st4" d="M89.9,14.7h3c-0.2-1.2-0.9-1.8-2-1.8c-0.7,0-1.3,0.3-1.8,0.9c-0.5,0.6-0.7,1.4-0.7,2.4c0,1,0.2,1.9,0.7,2.5
		c0.5,0.7,1,1,1.7,1c0.6,0,1.2-0.3,1.7-0.9c0,0,4.5,0,6.2,0C98.6,20.9,96,23,96,23c-1.6,1.2-3.3,1.8-5.2,1.8c-2.3,0-4.3-0.8-5.9-2.4
		c-1.6-1.6-2.4-3.5-2.4-5.9c0-2.3,0.8-4.3,2.4-5.8s3.6-2.4,6-2.4c2.3,0,4.2,0.8,5.8,2.3c1.6,1.5,2.3,3.5,2.3,5.7
		c0,0.1,0,0.5-0.1,1.1h-9"/>
	<path class="st4" d="M115.3,24.4h-5.9v-8.9c0-0.9-0.4-1.4-1.1-1.4c-0.7,0-1.1,0.5-1.1,1.4v8.9h-5.9v-8.8c0-2.1,0.7-3.8,2-5.2
		c1.4-1.4,3-2.1,5-2.1c2.2,0,3.9,0.7,5.1,2.1c1.3,1.4,1.9,3.3,1.9,5.7V24.4z"/>
	<path class="st5" d="M99.3,16.7c0-1.5-0.3-3.1-1.1-4.4c-0.7-1.2-1.7-2.2-3-2.9c-1.3-0.7-2.8-1-4.3-1c-1.5,0-3.1,0.3-4.4,1
		c-1.3,0.7-2.3,1.7-3,3c-0.7,1.4-1.1,3-1.1,4.6c0,1.6,0.3,3.2,1.1,4.6c0.7,1.3,1.7,2.3,3,3c1.3,0.7,2.9,1.1,4.4,1.1
		c1.3,0,2.5-0.2,3.7-0.8c1.1-0.5,2-1.2,2.7-2.1c0.7-0.9,1.2-1.9,1.5-3h-5.5c-0.5,1.1-1.5,1.7-2.7,1.6c-0.8,0-1.6-0.3-2.2-0.8
		c-0.6-0.6-1-1.5-1-2.4h11.6C99.2,17.7,99.3,17.2,99.3,16.7z M87.6,15.3c0.1-0.8,0.5-1.6,1.1-2.1c0.6-0.5,1.4-0.8,2.2-0.8
		c0.8,0,1.6,0.3,2.2,0.8c0.6,0.5,0.9,1.3,0.9,2.1H87.6z"/>
</g>
</svg>
